<?xml version="1.0" encoding="utf-8"?>
<!-- Generator: Adobe Illustrator 19.0.0, SVG Export Plug-In . SVG Version: 6.00 Build 0)  -->
<svg version="1.1" id="Layer_1" xmlns="http://www.w3.org/2000/svg" xmlns:xlink="http://www.w3.org/1999/xlink" x="0px" y="0px"
	 viewBox="0 0 665 86" style="enable-background:new 0 0 665 86;" xml:space="preserve">
<style type="text/css">
	.st0{fill:#FFFFFF;}
	.st1{fill:#ED0C54;}
</style>
<g id="XMLID_155_">
	<g id="XMLID_156_">
		<path id="XMLID_161_" class="st0" d="M171.3,8.6c-0.2,0.2-0.4,0.4-0.6,0.7c-2.8,4.4-5.9,8.5-9.7,12.1c-4.4,4.1-9.3,7.2-15.2,8.7
			c-2.7,0.7-5.5,1.1-8.3,1.1c-34,0-68,0-101.9,0c-0.3,0-0.5,0-0.8,0c0-0.1,0-0.2,0.1-0.3c3.4-5.4,7.2-10.4,12.1-14.5
			c4.9-4.1,10.4-6.7,16.7-7.5c1.6-0.2,3.3-0.4,5-0.4c33.9,0,67.8,0,101.7,0c0.4,0,0.7,0,1.1,0.1C171.3,8.5,171.3,8.5,171.3,8.6z"/>
		<path id="XMLID_160_" class="st0" d="M0.1,86.1c0.2-0.2,0.4-0.4,0.6-0.7c8.7-13.1,17.4-26.2,26-39.3c0.3-0.5,0.6-0.6,1.2-0.5
			c4.5,0.8,9.1,1.6,13.6,2.4c4.5,0.8,9,1.6,13.5,2.4c0.3,0.1,0.7,0.1,1.1,0.2c-0.2,0.3-0.3,0.5-0.4,0.7c-6.4,9.7-12.8,19.3-19.2,29
			c-0.3,0.5-0.7,0.7-1.2,0.7c-5.6,0.8-11.2,1.7-16.8,2.6c-6,0.9-11.9,1.8-17.9,2.7c-0.2,0-0.4,0-0.6,0C0.1,86.2,0.1,86.1,0.1,86.1z"
			/>
		<path id="XMLID_159_" class="st0" d="M91.8,35.7c-0.2,0.3-0.3,0.6-0.5,0.8c-6.3,9.5-12.6,19-18.9,28.4c-0.3,0.4-0.6,0.6-1.1,0.7
			c-5.5,0.8-11,1.7-16.4,2.5c-1.7,0.3-3.3,0.5-5.2,0.8c4.9-7.4,9.7-14.7,14.6-22.1c-2-0.3-3.8-0.6-5.6-0.9c-4.5-0.7-9-1.5-13.5-2.2
			c-4.2-0.7-8.5-1.4-12.7-2.1c-4.8-0.8-9.5-1.6-14.3-2.4c-4.2-0.7-8.4-1.4-12.6-2.1c-1-0.2-2-0.3-2.9-0.5c-0.3-0.1-0.5-0.4-0.8-0.6
			c0.3-0.1,0.6-0.3,0.9-0.4c0.1,0,0.2,0,0.3,0c29.3,0,58.7,0,88,0C91.2,35.7,91.4,35.7,91.8,35.7z"/>
		<path id="XMLID_158_" class="st0" d="M78.7,64.5c1.3-1.9,2.4-3.7,3.6-5.5c3.5-5.3,7-10.6,10.5-15.9c0.8-1.2,1.6-2.5,1.9-4
			c0.2-1.2,0-2.2-1.1-2.9c-0.1-0.1-0.1-0.2-0.3-0.3c8.2,0,16.2,0,24.3,0c-0.1,0.2-0.2,0.4-0.3,0.5c-5.4,8.1-10.7,16.2-16.1,24.3
			c-0.2,0.3-0.6,0.5-1,0.6c-4.7,0.8-9.5,1.5-14.3,2.2c-2.3,0.4-4.5,0.7-6.8,1.1C79.1,64.5,79,64.5,78.7,64.5z"/>
		<path id="XMLID_157_" class="st0" d="M119.4,35.7c8.1,0,16.1,0,24.2,0c0,0.1,0,0.1,0,0.2c-3,4.5-5.9,9-9,13.3
			c-1.3,1.8-3,3.4-4.6,4.9c-2.6,2.4-5.8,3.5-9.3,3.9c-3.7,0.4-7.3,1.1-11,1.6c-0.7,0.1-1.4,0.2-2.2,0.3c0.2-0.3,0.3-0.5,0.5-0.7
			c3.6-5.4,7.2-10.8,10.8-16.3c0.8-1.2,1.6-2.5,1.9-4c0.3-1.2,0-2.3-1.1-3c-0.1,0-0.1-0.1-0.1-0.2C119.4,35.9,119.4,35.8,119.4,35.7
			z"/>
	</g>
</g>
<g id="XMLID_138_">
	<polygon id="XMLID_154_" class="st0" points="183.8,8.3 183.8,63.3 194.8,63.3 194.8,41.2 216.5,41.2 221.1,31.6 194.8,31.6 
		194.8,17.8 227.8,17.8 232.4,8.3 	"/>
	<path id="XMLID_151_" class="st0" d="M274.2,64c-9.7,0-17.8-2.7-24.1-8.1c-6.2-5.3-9.4-12-9.4-20c0-8,3.2-14.7,9.4-20
		c6.3-5.4,14.4-8.1,24.1-8.1c9.7,0,17.8,2.7,24.1,8.1c6.2,5.3,9.4,12,9.4,20c0,8-3.2,14.7-9.4,20C292,61.2,283.9,64,274.2,64z
		 M274.2,17.3c-6.9,0-12.4,1.8-16.6,5.5c-4,3.4-5.9,7.7-5.9,13.1c0,5.4,1.9,9.6,5.9,13.1c4.2,3.6,9.8,5.5,16.6,5.5
		c6.9,0,12.4-1.8,16.6-5.5c4-3.4,5.9-7.7,5.9-13.1s-1.9-9.6-5.9-13.1C286.6,19.1,281,17.3,274.2,17.3z"/>
	<path id="XMLID_148_" class="st0" d="M369.8,63.3l-15-19.6h-18.6v19.6h-11v-55h31.7c6.7,0,12.2,1.6,16.4,4.7
		c4.3,3.2,6.5,7.7,6.5,13.2c0,7.2-3.8,12.3-11,14.9c-0.8,0.3-1.7,0.6-2.5,0.8l16.9,21.4H369.8z M355.7,34.3c5.9,0,10-1.4,12.1-4.3
		c0.7-0.9,1-2.2,1-3.8c0-2.6-1-4.6-3.2-6.1c-2.3-1.6-5.6-2.5-9.6-2.5h-19.9v16.6H355.7z"/>
	<polygon id="XMLID_147_" class="st0" points="401.1,63.3 401.1,55.1 438.8,17.7 401.7,17.7 401.7,8.3 454.2,8.3 454.2,16.7 
		416.5,54 454.2,54 454.2,63.3 	"/>
	<g id="XMLID_139_">
		<path id="XMLID_144_" class="st0" d="M525.5,63.3l-7.6-14.8h-28.3L482,63.3h-12.2l28.4-55h11.2l28.4,55H525.5z M513.2,39.3
			l-9.4-18.6l-9.4,18.6H513.2z"/>
		<path id="XMLID_140_" class="st0" d="M480.8,61.4H473l26.3-51.1 M508.2,10.3l26.3,51.1h-7.8l-7.6-14.8h-30.7 M503.8,16.3
			l-12.7,24.9h25.3"/>
	</g>
</g>
<g id="XMLID_176_">
	<path id="XMLID_243_" class="st0" d="M631.8,8.1c-5.5,0-10.1,1.6-13.8,4.8c-3.7,3.2-5.6,7.3-5.6,12.1c0,2.5,0.7,5,2.1,7.4
		c1.4,2.4,4.2,4.8,8.6,7.5c5,3.1,6.6,4.6,7.1,5.3c0.7,1,1.1,1.9,1.1,2.8c0,1.3-0.5,2.3-1.5,3.1c-1.1,0.9-2.6,1.3-4.6,1.3
		c-1.9,0-4.2-0.5-6.7-1.4c-2.6-0.9-5-2.2-7.1-3.6l-1.7-1.2L607.5,58l0.7,0.5c5.1,3.4,11.3,5.1,18.3,5.1c5.7,0,10.3-1.6,13.6-4.9
		c3.4-3.2,5.1-7.4,5.1-12.3c0-2.8-0.8-5.5-2.3-8.1c-1.6-2.6-4.4-5.1-8.8-7.7c-5.2-3.1-6.6-4.4-7-4.9c-0.6-0.8-0.9-1.5-0.9-2.2
		c0-1.2,0.5-2.2,1.5-3c1.1-0.9,2.6-1.3,4.3-1.3c1.7,0,3.7,0.4,5.9,1.2c2.3,0.8,4.3,1.8,6.1,3.1l1.7,1.3l2-12.1l-0.8-0.5
		C642.4,9.5,637.2,8.1,631.8,8.1z"/>
	<polygon id="XMLID_181_" class="st0" points="614.6,8.7 600.3,8.7 587.9,36 582.7,8.7 569.5,8.7 580.9,63.6 588.1,63.6 	"/>
	<path id="XMLID_177_" class="st1" d="M562.7,1.1l-10.2,69.5h102.4l10.2-69.5H562.7z M569.5,8.7h13.2l5.2,27.3l12.5-27.3h14.3
		l-26.5,54.9h-7.3L569.5,8.7z M646,24.9l-1.7-1.3c-1.7-1.2-3.8-2.3-6.1-3.1c-2.3-0.8-4.3-1.2-5.9-1.2c-1.8,0-3.2,0.4-4.3,1.3
		c-1.1,0.8-1.5,1.8-1.5,3c0,0.7,0.3,1.4,0.9,2.2c0.4,0.5,1.8,1.8,7,4.9c4.4,2.6,7.2,5.1,8.8,7.7c1.5,2.6,2.3,5.3,2.3,8.1
		c0,4.9-1.7,9-5.1,12.3c-3.4,3.2-8,4.9-13.6,4.9c-7,0-13.1-1.7-18.3-5.1l-0.7-0.5l2.2-11.9l1.7,1.2c2.1,1.5,4.5,2.7,7.1,3.6
		c2.6,0.9,4.8,1.4,6.7,1.4c1.9,0,3.5-0.4,4.6-1.3c1-0.8,1.5-1.8,1.5-3.1c0-0.9-0.4-1.8-1.1-2.8c-0.5-0.7-2.2-2.2-7.1-5.3
		c-4.4-2.7-7.2-5.2-8.6-7.5c-1.4-2.4-2.1-4.9-2.1-7.4c0-4.8,1.9-8.9,5.6-12.1c3.7-3.2,8.3-4.8,13.8-4.8c5.4,0,10.6,1.4,15.4,4.2
		l0.8,0.5L646,24.9z"/>
</g>
</svg>
